<svg xmlns="http://www.w3.org/2000/svg" viewBox="0 0 800 800">
  <circle cx="400" cy="400" r="390" fill="none" stroke="#9DC45F" stroke-width="20"/>
  <circle cx="400" cy="400" r="360" fill="#5F1B2C"/>
  <circle cx="400" cy="400" r="280" fill="white"/>
  
  <!-- Top text: LIFE BEGINS AFTER COFFEE -->
  <path id="topCurve" d="M 120,400 A 280,280 0 0,1 680,400" fill="none"/>
  <text fill="white" font-family="Arial, sans-serif" font-size="36" font-weight="bold" letter-spacing="2">
    <textPath href="#topCurve" startOffset="50%" text-anchor="middle">
      LIFE BEGINS AFTER COFFEE
    </textPath>
  </text>
  
  <!-- Bottom text: RATTANAK COFFEE -->
  <path id="bottomCurve" d="M 680,400 A 280,280 0 0,1 120,400" fill="none"/>
  <text fill="white" font-family="Arial, sans-serif" font-size="48" font-weight="bold" letter-spacing="3">
    <textPath href="#bottomCurve" startOffset="50%" text-anchor="middle">
      RATTANAK COFFEE
    </textPath>
  </text>
  
  <!-- Coffee beans decoration -->
  <g transform="translate(400, 280)">
    <ellipse cx="-15" cy="0" rx="10" ry="15" fill="#5F1B2C"/>
    <ellipse cx="0" cy="0" rx="10" ry="15" fill="#5F1B2C"/>
    <ellipse cx="15" cy="0" rx="10" ry="15" fill="#5F1B2C"/>
    <ellipse cx="-7" cy="-8" rx="8" ry="12" fill="#7A3D2E"/>
    <ellipse cx="7" cy="-8" rx="8" ry="12" fill="#7A3D2E"/>
  </g>
  
  <!-- Coffee leaves -->
  <g transform="translate(340, 300)">
    <path d="M 0,0 Q -20,-30 -10,-50" fill="none" stroke="#9DC45F" stroke-width="3"/>
    <ellipse cx="-15" cy="-35" rx="15" ry="25" fill="#9DC45F" transform="rotate(-30 -15 -35)"/>
  </g>
  
  <g transform="translate(460, 300)">
    <path d="M 0,0 Q 20,-30 10,-50" fill="none" stroke="#9DC45F" stroke-width="3"/>
    <ellipse cx="15" cy="-35" rx="15" ry="25" fill="#9DC45F" transform="rotate(30 15 -35)"/>
  </g>
  
  <!-- Khmer text in center -->
  <text x="400" y="420" text-anchor="middle" fill="#5F1B2C" font-family="Arial, sans-serif" font-size="64" font-weight="bold">
    រតនៈកាហ្វេ
  </text>
  
  <!-- Green lines above and below Khmer text -->
  <line x1="200" y1="380" x2="600" y2="380" stroke="#9DC45F" stroke-width="4"/>
  <line x1="200" y1="440" x2="600" y2="440" stroke="#9DC45F" stroke-width="4"/>
  
  <!-- Coffee beans decoration bottom -->
  <g transform="translate(400, 520)">
    <ellipse cx="-15" cy="0" rx="10" ry="15" fill="#5F1B2C"/>
    <ellipse cx="0" cy="0" rx="10" ry="15" fill="#5F1B2C"/>
    <ellipse cx="15" cy="0" rx="10" ry="15" fill="#5F1B2C"/>
    <ellipse cx="-7" cy="8" rx="8" ry="12" fill="#7A3D2E"/>
    <ellipse cx="7" cy="8" rx="8" ry="12" fill="#7A3D2E"/>
  </g>
  
  <!-- Coffee leaves bottom -->
  <g transform="translate(340, 500)">
    <path d="M 0,0 Q -20,30 -10,50" fill="none" stroke="#9DC45F" stroke-width="3"/>
    <ellipse cx="-15" cy="35" rx="15" ry="25" fill="#9DC45F" transform="rotate(30 -15 35)"/>
  </g>
  
  <g transform="translate(460, 500)">
    <path d="M 0,0 Q 20,30 10,50" fill="none" stroke="#9DC45F" stroke-width="3"/>
    <ellipse cx="15" cy="35" rx="15" ry="25" fill="#9DC45F" transform="rotate(-30 15 35)"/>
  </g>
  
  <!-- Coffee bean decorations on sides -->
  <g transform="translate(120, 400)">
    <ellipse cx="0" cy="-10" rx="12" ry="18" fill="#C8B299" transform="rotate(20)"/>
    <ellipse cx="0" cy="10" rx="12" ry="18" fill="#C8B299" transform="rotate(-20)"/>
  </g>
  
  <g transform="translate(680, 400)">
    <ellipse cx="0" cy="-10" rx="12" ry="18" fill="#C8B299" transform="rotate(-20)"/>
    <ellipse cx="0" cy="10" rx="12" ry="18" fill="#C8B299" transform="rotate(20)"/>
  </g>
</svg>
